<?xml version="1.0"?>
<svg xmlns="http://www.w3.org/2000/svg" xmlns:xlink="http://www.w3.org/1999/xlink" version="1.1" id="Layer_1" x="0px" y="0px" viewBox="0 0 512 512" style="enable-background:new 0 0 512 512;" xml:space="preserve" width="512px" height="512px" class=""><g><g>
	<g>
		<path d="M501.333,245.333H266.667V10.667C266.667,4.776,261.891,0,256,0c-5.891,0-10.667,4.776-10.667,10.667v234.667H10.667    C4.776,245.333,0,250.109,0,256c0,5.891,4.776,10.667,10.667,10.667h234.667v234.667c0,5.891,4.776,10.667,10.667,10.667    c5.891,0,10.667-4.776,10.667-10.667V266.667h234.667c5.891,0,10.667-4.776,10.667-10.667    C512,250.109,507.224,245.333,501.333,245.333z" data-original="#000000" class="active-path" data-old_color="#000000" fill="#4AB4DC"/>
	</g>
</g></g> </svg>
